<?xml version="1.0" standalone="no"?>
<!DOCTYPE svg PUBLIC "-//W3C//DTD SVG 20010904//EN"
 "http://www.w3.org/TR/2001/REC-SVG-20010904/DTD/svg10.dtd">
<svg version="1.0" xmlns="http://www.w3.org/2000/svg"
 width="100.000000pt" height="100.000000pt" viewBox="0 0 100.000000 100.000000"
 preserveAspectRatio="xMidYMid meet">

<g transform="translate(0.000000,100.000000) scale(0.100000,-0.100000)"
fill="#000000" stroke="none">
<path d="M37 963 c-4 -3 -7 -36 -7 -73 0 -63 1 -67 38 -103 38 -37 40 -38 108
-35 l69 3 3 69 c3 68 2 70 -35 108 -36 37 -40 38 -103 38 -37 0 -70 -3 -73 -7z
m143 -38 c11 -13 7 -15 -28 -15 -23 0 -45 6 -52 15 -11 13 -7 15 28 15 23 0
45 -6 52 -15z m-90 -77 c0 -35 -2 -39 -15 -28 -9 7 -15 29 -15 52 0 35 2 39
15 28 9 -7 15 -29 15 -52z m130 -23 l0 -45 -45 0 -45 0 0 45 0 45 45 0 45 0 0
-45z"/>
<path d="M397 963 c-4 -3 -7 -36 -7 -73 0 -63 1 -67 38 -103 38 -37 40 -38
108 -35 l69 3 3 69 c3 68 2 70 -35 108 -36 37 -40 38 -103 38 -37 0 -70 -3
-73 -7z m143 -38 c11 -13 7 -15 -28 -15 -23 0 -45 6 -52 15 -11 13 -7 15 28
15 23 0 45 -6 52 -15z m-90 -77 c0 -35 -2 -39 -15 -28 -9 7 -15 29 -15 52 0
35 2 39 15 28 9 -7 15 -29 15 -52z m130 -24 l0 -45 -47 3 -48 3 -3 43 -3 42
50 0 51 0 0 -46z"/>
<path d="M757 963 c-4 -3 -7 -36 -7 -73 0 -63 1 -67 38 -103 38 -37 40 -38
108 -35 l69 3 3 69 c3 68 2 70 -35 108 -36 37 -40 38 -103 38 -37 0 -70 -3
-73 -7z m143 -38 c11 -13 7 -15 -28 -15 -23 0 -45 6 -52 15 -11 13 -7 15 28
15 23 0 45 -6 52 -15z m-90 -77 c0 -35 -2 -39 -15 -28 -9 7 -15 29 -15 52 0
35 2 39 15 28 9 -7 15 -29 15 -52z m130 -23 l0 -45 -50 0 -50 0 0 45 0 45 50
0 50 0 0 -45z"/>
<path d="M280 875 c0 -10 10 -15 30 -15 20 0 30 5 30 15 0 10 -10 15 -30 15
-20 0 -30 -5 -30 -15z"/>
<path d="M660 875 c0 -10 10 -15 30 -15 20 0 30 5 30 15 0 10 -10 15 -30 15
-20 0 -30 -5 -30 -15z"/>
<path d="M110 690 c0 -20 5 -30 15 -30 10 0 15 10 15 30 0 20 -5 30 -15 30
-10 0 -15 -10 -15 -30z"/>
<path d="M487 714 c-13 -13 -7 -24 14 -24 11 0 19 5 17 12 -5 14 -22 21 -31
12z"/>
<path d="M860 690 c0 -20 5 -30 15 -30 10 0 15 10 15 30 0 20 -5 30 -15 30
-10 0 -15 -10 -15 -30z"/>
<path d="M382 678 c5 -15 28 -18 29 -3 0 6 -7 12 -17 13 -10 3 -15 -1 -12 -10z"/>
<path d="M585 681 c-3 -5 -1 -12 5 -16 12 -7 30 2 30 16 0 12 -27 12 -35 0z"/>
<path d="M415 647 c-112 -63 -112 -231 0 -294 150 -85 317 82 232 232 -29 51
-88 85 -147 85 -28 0 -60 -9 -85 -23z m105 -26 c16 -32 12 -41 -20 -41 -16 0
-30 5 -30 11 0 16 20 49 30 49 5 0 14 -9 20 -19z m-80 -11 c0 -5 -4 -10 -10
-10 -5 0 -10 5 -10 10 0 6 5 10 10 10 6 0 10 -4 10 -10z m140 0 c0 -5 -4 -10
-10 -10 -5 0 -10 5 -10 10 0 6 5 10 10 10 6 0 10 -4 10 -10z m-163 -41 c20
-20 3 -49 -28 -49 -33 0 -33 0 -17 35 12 27 27 32 45 14z m211 -14 c16 -35 16
-35 -17 -35 -31 0 -48 29 -28 49 18 18 33 13 45 -14z m-84 -20 c4 -12 -4 -15
-44 -15 -40 0 -48 3 -44 15 4 10 20 15 44 15 24 0 40 -5 44 -15z m-121 -74
c11 -42 -33 -55 -51 -16 -16 35 -16 35 17 35 20 0 30 -6 34 -19z m121 4 c-4
-10 -20 -15 -44 -15 -24 0 -40 5 -44 15 -4 12 4 15 44 15 40 0 48 -3 44 -15z
m96 10 c0 -15 -25 -55 -35 -55 -19 0 -33 21 -28 41 4 13 14 19 34 19 16 0 29
-2 29 -5z m-110 -68 c0 -7 -7 -22 -15 -33 -15 -19 -15 -19 -30 0 -23 31 -18
46 15 46 18 0 30 -5 30 -13z m-90 -17 c0 -5 -4 -10 -10 -10 -5 0 -10 5 -10 10
0 6 5 10 10 10 6 0 10 -4 10 -10z m140 0 c0 -5 -4 -10 -10 -10 -5 0 -10 5 -10
10 0 6 5 10 10 10 6 0 10 -4 10 -10z"/>
<path d="M312 606 c1 -10 8 -17 13 -17 15 1 12 24 -3 29 -9 3 -13 -2 -10 -12z"/>
<path d="M665 610 c-8 -13 4 -32 16 -25 12 8 12 35 0 35 -6 0 -13 -4 -16 -10z"/>
<path d="M37 603 c-4 -3 -7 -36 -7 -73 0 -63 1 -67 38 -103 38 -37 40 -38 108
-35 l69 3 3 69 c3 68 2 70 -35 108 -36 37 -40 38 -103 38 -37 0 -70 -3 -73 -7z
m143 -38 c11 -13 7 -15 -28 -15 -23 0 -45 6 -52 15 -11 13 -7 15 28 15 23 0
45 -6 52 -15z m-90 -77 c0 -35 -2 -39 -15 -28 -9 7 -15 29 -15 52 0 35 2 39
15 28 9 -7 15 -29 15 -52z m128 -20 l3 -48 -45 0 -46 0 0 51 0 50 43 -3 42 -3
3 -47z"/>
<path d="M757 603 c-4 -3 -7 -36 -7 -73 0 -63 1 -67 38 -103 38 -37 40 -38
108 -35 l69 3 3 69 c3 68 2 70 -35 108 -36 37 -40 38 -103 38 -37 0 -70 -3
-73 -7z m143 -38 c11 -13 7 -15 -28 -15 -23 0 -45 6 -52 15 -11 13 -7 15 28
15 23 0 45 -6 52 -15z m-90 -77 c0 -35 -2 -39 -15 -28 -9 7 -15 29 -15 52 0
35 2 39 15 28 9 -7 15 -29 15 -52z m128 -21 l3 -48 -48 3 c-46 3 -48 4 -51 36
-5 54 2 64 50 60 l43 -3 3 -48z"/>
<path d="M285 510 c-7 -12 2 -30 16 -30 5 0 9 9 9 20 0 21 -15 27 -25 10z"/>
<path d="M690 500 c0 -13 5 -20 13 -17 6 2 12 10 12 17 0 7 -6 15 -12 18 -8 2
-13 -5 -13 -18z"/>
<path d="M314 406 c-8 -22 3 -33 18 -18 9 9 9 15 0 24 -9 9 -13 7 -18 -6z"/>
<path d="M665 410 c-7 -12 2 -30 16 -30 12 0 12 27 0 35 -5 3 -12 1 -16 -5z"/>
<path d="M110 310 c0 -20 5 -30 15 -30 10 0 15 10 15 30 0 20 -5 30 -15 30
-10 0 -15 -10 -15 -30z"/>
<path d="M385 329 c-10 -15 1 -23 20 -15 9 3 13 10 10 16 -8 13 -22 13 -30 -1z"/>
<path d="M585 330 c-3 -6 1 -13 10 -16 19 -8 30 0 20 15 -8 14 -22 14 -30 1z"/>
<path d="M860 310 c0 -20 5 -30 15 -30 10 0 15 10 15 30 0 20 -5 30 -15 30
-10 0 -15 -10 -15 -30z"/>
<path d="M483 298 c2 -7 10 -13 17 -13 7 0 15 6 18 13 2 7 -5 12 -18 12 -13 0
-20 -5 -17 -12z"/>
<path d="M37 243 c-4 -3 -7 -36 -7 -73 0 -63 1 -67 38 -103 38 -37 40 -38 108
-35 l69 3 3 69 c3 68 2 70 -35 108 -36 37 -40 38 -103 38 -37 0 -70 -3 -73 -7z
m143 -38 c11 -13 7 -15 -28 -15 -23 0 -45 6 -52 15 -11 13 -7 15 28 15 23 0
45 -6 52 -15z m-90 -77 c0 -35 -2 -39 -15 -28 -9 7 -15 29 -15 52 0 35 2 39
15 28 9 -7 15 -29 15 -52z m130 -18 l0 -50 -45 0 -45 0 0 50 0 50 45 0 45 0 0
-50z"/>
<path d="M397 243 c-4 -3 -7 -36 -7 -73 0 -63 1 -67 38 -103 38 -37 40 -38
108 -35 l69 3 3 69 c3 68 2 70 -35 108 -36 37 -40 38 -103 38 -37 0 -70 -3
-73 -7z m143 -38 c11 -13 7 -15 -28 -15 -23 0 -45 6 -52 15 -11 13 -7 15 28
15 23 0 45 -6 52 -15z m-90 -77 c0 -35 -2 -39 -15 -28 -9 7 -15 29 -15 52 0
35 2 39 15 28 9 -7 15 -29 15 -52z m128 -21 l3 -48 -48 3 c-46 3 -48 4 -51 36
-5 54 2 64 50 60 l43 -3 3 -48z"/>
<path d="M757 243 c-4 -3 -7 -36 -7 -73 0 -63 1 -67 38 -103 38 -37 40 -38
108 -35 l69 3 3 69 c3 68 2 70 -35 108 -36 37 -40 38 -103 38 -37 0 -70 -3
-73 -7z m143 -38 c11 -13 7 -15 -28 -15 -23 0 -45 6 -52 15 -11 13 -7 15 28
15 23 0 45 -6 52 -15z m-90 -77 c0 -35 -2 -39 -15 -28 -9 7 -15 29 -15 52 0
35 2 39 15 28 9 -7 15 -29 15 -52z m128 -21 l3 -48 -48 3 c-46 3 -48 4 -51 36
-5 54 2 64 50 60 l43 -3 3 -48z"/>
<path d="M280 125 c0 -10 10 -15 30 -15 20 0 30 5 30 15 0 10 -10 15 -30 15
-20 0 -30 -5 -30 -15z"/>
<path d="M660 125 c0 -10 10 -15 30 -15 20 0 30 5 30 15 0 10 -10 15 -30 15
-20 0 -30 -5 -30 -15z"/>
</g>
</svg>
