<?xml version="1.0" standalone="no"?>
<!DOCTYPE svg PUBLIC "-//W3C//DTD SVG 20010904//EN"
 "http://www.w3.org/TR/2001/REC-SVG-20010904/DTD/svg10.dtd">
<svg version="1.0" xmlns="http://www.w3.org/2000/svg"
 width="100.000000pt" height="100.000000pt" viewBox="0 0 100.000000 100.000000"
 preserveAspectRatio="xMidYMid meet">

<g transform="translate(0.000000,100.000000) scale(0.100000,-0.100000)"
fill="#000000" stroke="none">
<path d="M384 967 c-3 -8 -4 -43 -2 -78 2 -49 7 -64 18 -64 12 0 15 15 15 74
0 51 -4 76 -12 78 -7 3 -15 -2 -19 -10z"/>
<path d="M204 909 c-4 -6 16 -34 45 -62 40 -41 53 -49 63 -39 10 10 2 23 -37
62 -52 53 -60 57 -71 39z"/>
<path d="M525 870 c-38 -39 -47 -52 -37 -62 10 -10 23 -1 62 37 28 27 49 54
47 59 -7 22 -25 14 -72 -34z"/>
<path d="M565 710 c-105 -104 -194 -190 -197 -190 -4 0 -18 19 -32 43 -49 84
-130 137 -206 137 -29 0 -90 -43 -90 -63 0 -6 26 -39 59 -72 55 -57 61 -67
100 -186 l42 -126 102 -100 c110 -109 137 -122 214 -108 32 5 62 31 181 149
159 159 167 175 112 226 -16 15 -30 38 -30 50 0 12 -13 35 -30 50 -16 15 -30
38 -30 49 0 12 -12 33 -26 48 l-25 25 75 78 c85 87 93 113 51 155 -49 50 -62
42 -270 -165z m243 138 c7 -7 12 -19 12 -26 0 -8 -45 -61 -100 -116 -74 -75
-97 -105 -89 -113 8 -8 18 -8 35 -1 17 8 27 8 39 -2 20 -17 19 -32 -5 -62 -24
-32 -10 -52 26 -36 17 8 27 8 39 -2 20 -17 19 -32 -5 -62 -25 -32 -10 -52 27
-35 30 13 59 -10 49 -40 -4 -11 -62 -74 -129 -140 -173 -170 -197 -172 -338
-36 l-88 85 -46 137 c-42 126 -49 141 -95 186 -53 52 -54 75 -2 75 54 0 112
-40 153 -104 73 -116 40 -128 271 102 112 111 211 202 219 202 8 0 20 -5 27
-12z"/>
</g>
</svg>
