<?xml version="1.0" standalone="no"?>
<!DOCTYPE svg PUBLIC "-//W3C//DTD SVG 20010904//EN"
 "http://www.w3.org/TR/2001/REC-SVG-20010904/DTD/svg10.dtd">
<svg version="1.0" xmlns="http://www.w3.org/2000/svg"
 width="100.000000pt" height="100.000000pt" viewBox="0 0 100.000000 100.000000"
 preserveAspectRatio="xMidYMid meet">

<g transform="translate(0.000000,100.000000) scale(0.100000,-0.100000)"
fill="#000000" stroke="none">
<path d="M414 836 c-30 -30 -34 -40 -34 -84 0 -39 6 -57 25 -81 14 -16 35 -33
45 -36 17 -5 20 -16 20 -71 0 -50 -3 -64 -15 -64 -8 0 -30 -13 -48 -30 -40
-35 -80 -39 -126 -13 -30 18 -31 17 -76 -7 -77 -42 -80 -48 -80 -171 0 -100 2
-110 23 -131 l23 -23 329 0 329 0 23 23 c21 21 23 31 23 133 0 109 0 111 -28
135 -25 22 -37 24 -124 24 -92 0 -97 1 -130 30 -18 17 -40 30 -48 30 -12 0
-15 14 -15 64 0 55 3 66 20 71 10 3 31 20 45 36 19 24 25 42 25 81 0 44 -4 54
-34 84 -30 30 -40 34 -86 34 -46 0 -56 -4 -86 -34z m130 -42 c20 -20 20 -68 0
-88 -8 -9 -28 -16 -44 -16 -36 0 -60 24 -60 60 0 36 24 60 60 60 16 0 36 -7
44 -16z m266 -514 l0 -90 -310 0 -310 0 0 90 0 90 310 0 310 0 0 -90z"/>
<path d="M566 294 c-9 -22 17 -49 39 -40 10 3 15 15 13 28 -4 29 -42 37 -52
12z"/>
<path d="M694 295 c-8 -21 2 -45 19 -45 20 0 40 27 33 45 -7 19 -45 20 -52 0z"/>
</g>
</svg>
